<svg xmlns="http://www.w3.org/2000/svg" viewBox="0 0 400 300" width="400" height="300">

<defs>
  <filter id="wash" x="-20%" y="-20%" width="140%" height="140%">
    <feTurbulence type="fractalNoise" baseFrequency="0.03" numOctaves="3" seed="23" result="n"/>
    <feDisplacementMap in="SourceGraphic" in2="n" scale="9" xChannelSelector="R" yChannelSelector="G" result="d"/>
    <feGaussianBlur in="d" stdDeviation="0.8" result="b"/>
    <feMorphology in="b" operator="erode" radius="1.4" result="inner"/>
    <feComposite in="b" in2="inner" operator="out" result="rim"/>
    <feComponentTransfer in="rim" result="rimDark"><feFuncA type="linear" slope="0.55"/></feComponentTransfer>
    <feMerge><feMergeNode in="b"/><feMergeNode in="rimDark"/></feMerge>
  </filter>
  <filter id="ink" x="-10%" y="-10%" width="120%" height="120%">
    <feTurbulence type="fractalNoise" baseFrequency="0.05" numOctaves="2" seed="30" result="n"/>
    <feDisplacementMap in="SourceGraphic" in2="n" scale="3" xChannelSelector="R" yChannelSelector="G"/>
  </filter>
  <filter id="soft" x="-30%" y="-30%" width="160%" height="160%"><feGaussianBlur stdDeviation="14"/></filter>
  <filter id="grain">
    <feTurbulence type="fractalNoise" baseFrequency="0.9" numOctaves="2" seed="23" result="g"/>
    <feColorMatrix in="g" type="matrix" values="0 0 0 0 0.35  0 0 0 0 0.25  0 0 0 0 0.2  0 0 0 0.09 0"/>
    <feComposite in2="SourceGraphic" operator="in"/>
  </filter>
</defs>
<g filter="url(#soft)" opacity=".55"><circle cx="200" cy="160" r="125" fill="#F3E0E4"/><circle cx="110" cy="110" r="60" fill="#F8E3C4"/></g>
<g filter="url(#wash)">
    <ellipse cx="200" cy="262" rx="132" ry="24" fill="#B8742F" opacity=".85"/>
    <ellipse cx="200" cy="256" rx="118" ry="17" fill="#D18D3E" opacity=".85"/>
    <path d="M86 262 l-14 -30 30 14z M314 262 l14 -30 -30 14z M150 276 l-8 -26 20 18z M250 276 l8 -26 -20 18z" fill="#C27F36" opacity=".85"/>
    <circle cx="120.0" cy="236" r="13.5" fill="#D9A15B" opacity=".92"/><circle cx="146.7" cy="236" r="13.5" fill="#E2AE68" opacity=".92"/><circle cx="173.3" cy="236" r="13.5" fill="#CF9550" opacity=".92"/><circle cx="200.0" cy="236" r="13.5" fill="#D9A15B" opacity=".92"/><circle cx="226.7" cy="236" r="13.5" fill="#E2AE68" opacity=".92"/><circle cx="253.3" cy="236" r="13.5" fill="#CF9550" opacity=".92"/><circle cx="280.0" cy="236" r="13.5" fill="#D9A15B" opacity=".92"/><circle cx="129.6" cy="215" r="13.5" fill="#E2AE68" opacity=".92"/><circle cx="153.1" cy="215" r="13.5" fill="#CF9550" opacity=".92"/><circle cx="176.5" cy="215" r="13.5" fill="#D9A15B" opacity=".92"/><circle cx="200.0" cy="215" r="13.5" fill="#E2AE68" opacity=".92"/><circle cx="223.5" cy="215" r="13.5" fill="#CF9550" opacity=".92"/><circle cx="246.9" cy="215" r="13.5" fill="#D9A15B" opacity=".92"/><circle cx="270.4" cy="215" r="13.5" fill="#E2AE68" opacity=".92"/><circle cx="139.2" cy="194" r="13.5" fill="#CF9550" opacity=".92"/><circle cx="163.5" cy="194" r="13.5" fill="#D9A15B" opacity=".92"/><circle cx="187.8" cy="194" r="13.5" fill="#E2AE68" opacity=".92"/><circle cx="212.2" cy="194" r="13.5" fill="#CF9550" opacity=".92"/><circle cx="236.5" cy="194" r="13.5" fill="#D9A15B" opacity=".92"/><circle cx="260.8" cy="194" r="13.5" fill="#E2AE68" opacity=".92"/><circle cx="148.8" cy="173" r="13.5" fill="#D9A15B" opacity=".92"/><circle cx="174.4" cy="173" r="13.5" fill="#E2AE68" opacity=".92"/><circle cx="200.0" cy="173" r="13.5" fill="#CF9550" opacity=".92"/><circle cx="225.6" cy="173" r="13.5" fill="#D9A15B" opacity=".92"/><circle cx="251.3" cy="173" r="13.5" fill="#E2AE68" opacity=".92"/><circle cx="158.3" cy="152" r="13.5" fill="#E2AE68" opacity=".92"/><circle cx="186.1" cy="152" r="13.5" fill="#CF9550" opacity=".92"/><circle cx="213.9" cy="152" r="13.5" fill="#D9A15B" opacity=".92"/><circle cx="241.7" cy="152" r="13.5" fill="#E2AE68" opacity=".92"/><circle cx="167.9" cy="131" r="13.5" fill="#CF9550" opacity=".92"/><circle cx="189.3" cy="131" r="13.5" fill="#D9A15B" opacity=".92"/><circle cx="210.7" cy="131" r="13.5" fill="#E2AE68" opacity=".92"/><circle cx="232.1" cy="131" r="13.5" fill="#CF9550" opacity=".92"/><circle cx="177.5" cy="110" r="13.5" fill="#D9A15B" opacity=".92"/><circle cx="200.0" cy="110" r="13.5" fill="#E2AE68" opacity=".92"/><circle cx="222.5" cy="110" r="13.5" fill="#CF9550" opacity=".92"/><circle cx="187.1" cy="89" r="13.5" fill="#E2AE68" opacity=".92"/><circle cx="212.9" cy="89" r="13.5" fill="#CF9550" opacity=".92"/><circle cx="200.0" cy="68" r="13.5" fill="#CF9550" opacity=".92"/>
    <path d="M192 38 q8 -16 16 0 q-8 8 -16 0z" fill="#F4E6D3" opacity=".9"/>
    <circle cx="200" cy="44" r="7" fill="#F4E6D3" opacity=".9"/></g>
<g filter="url(#ink)" fill="none" stroke="#5B3B30" stroke-width="1.7" stroke-linecap="round" stroke-linejoin="round" opacity=".72"><ellipse cx="200" cy="262" rx="132" ry="24"/><circle cx="200" cy="44" r="7"/></g>
<ellipse cx="116.0" cy="231" rx="4.5" ry="2.6" fill="#FBE7C2" opacity=".8"/><ellipse cx="142.7" cy="231" rx="4.5" ry="2.6" fill="#FBE7C2" opacity=".8"/><ellipse cx="169.3" cy="231" rx="4.5" ry="2.6" fill="#FBE7C2" opacity=".8"/><ellipse cx="196.0" cy="231" rx="4.5" ry="2.6" fill="#FBE7C2" opacity=".8"/><ellipse cx="222.7" cy="231" rx="4.5" ry="2.6" fill="#FBE7C2" opacity=".8"/><ellipse cx="249.3" cy="231" rx="4.5" ry="2.6" fill="#FBE7C2" opacity=".8"/><ellipse cx="276.0" cy="231" rx="4.5" ry="2.6" fill="#FBE7C2" opacity=".8"/><ellipse cx="125.6" cy="210" rx="4.5" ry="2.6" fill="#FBE7C2" opacity=".8"/><ellipse cx="149.1" cy="210" rx="4.5" ry="2.6" fill="#FBE7C2" opacity=".8"/><ellipse cx="172.5" cy="210" rx="4.5" ry="2.6" fill="#FBE7C2" opacity=".8"/><ellipse cx="196.0" cy="210" rx="4.5" ry="2.6" fill="#FBE7C2" opacity=".8"/><ellipse cx="219.5" cy="210" rx="4.5" ry="2.6" fill="#FBE7C2" opacity=".8"/><ellipse cx="242.9" cy="210" rx="4.5" ry="2.6" fill="#FBE7C2" opacity=".8"/><ellipse cx="266.4" cy="210" rx="4.5" ry="2.6" fill="#FBE7C2" opacity=".8"/><ellipse cx="135.2" cy="189" rx="4.5" ry="2.6" fill="#FBE7C2" opacity=".8"/><ellipse cx="159.5" cy="189" rx="4.5" ry="2.6" fill="#FBE7C2" opacity=".8"/><ellipse cx="183.8" cy="189" rx="4.5" ry="2.6" fill="#FBE7C2" opacity=".8"/><ellipse cx="208.2" cy="189" rx="4.5" ry="2.6" fill="#FBE7C2" opacity=".8"/><ellipse cx="232.5" cy="189" rx="4.5" ry="2.6" fill="#FBE7C2" opacity=".8"/><ellipse cx="256.8" cy="189" rx="4.5" ry="2.6" fill="#FBE7C2" opacity=".8"/><ellipse cx="144.8" cy="168" rx="4.5" ry="2.6" fill="#FBE7C2" opacity=".8"/><ellipse cx="170.4" cy="168" rx="4.5" ry="2.6" fill="#FBE7C2" opacity=".8"/><ellipse cx="196.0" cy="168" rx="4.5" ry="2.6" fill="#FBE7C2" opacity=".8"/><ellipse cx="221.6" cy="168" rx="4.5" ry="2.6" fill="#FBE7C2" opacity=".8"/><ellipse cx="247.3" cy="168" rx="4.5" ry="2.6" fill="#FBE7C2" opacity=".8"/><ellipse cx="154.3" cy="147" rx="4.5" ry="2.6" fill="#FBE7C2" opacity=".8"/><ellipse cx="182.1" cy="147" rx="4.5" ry="2.6" fill="#FBE7C2" opacity=".8"/><ellipse cx="209.9" cy="147" rx="4.5" ry="2.6" fill="#FBE7C2" opacity=".8"/><ellipse cx="237.7" cy="147" rx="4.5" ry="2.6" fill="#FBE7C2" opacity=".8"/><ellipse cx="163.9" cy="126" rx="4.5" ry="2.6" fill="#FBE7C2" opacity=".8"/><ellipse cx="185.3" cy="126" rx="4.5" ry="2.6" fill="#FBE7C2" opacity=".8"/><ellipse cx="206.7" cy="126" rx="4.5" ry="2.6" fill="#FBE7C2" opacity=".8"/><ellipse cx="228.1" cy="126" rx="4.5" ry="2.6" fill="#FBE7C2" opacity=".8"/><ellipse cx="173.5" cy="105" rx="4.5" ry="2.6" fill="#FBE7C2" opacity=".8"/><ellipse cx="196.0" cy="105" rx="4.5" ry="2.6" fill="#FBE7C2" opacity=".8"/><ellipse cx="218.5" cy="105" rx="4.5" ry="2.6" fill="#FBE7C2" opacity=".8"/><ellipse cx="183.1" cy="84" rx="4.5" ry="2.6" fill="#FBE7C2" opacity=".8"/><ellipse cx="208.9" cy="84" rx="4.5" ry="2.6" fill="#FBE7C2" opacity=".8"/><ellipse cx="196.0" cy="63" rx="4.5" ry="2.6" fill="#FBE7C2" opacity=".8"/>
    <g fill="#F7E2B0" opacity=".9"><circle cx="160" cy="262" r="2.4"/><circle cx="186" cy="268" r="2"/><circle cx="222" cy="266" r="2.4"/><circle cx="246" cy="260" r="2"/><circle cx="130" cy="258" r="2"/><circle cx="272" cy="264" r="2.2"/></g>
    <g fill="none" stroke="#B8742F" stroke-width="1" opacity=".5"><path d="M136 100 q30 14 64 -2 t64 6" /><path d="M142 124 q28 14 58 -2 t58 6" /><path d="M148 148 q26 14 52 -2 t52 6" /><path d="M154 172 q24 14 46 -2 t46 6" /><path d="M160 196 q22 14 40 -2 t40 6" /><path d="M166 220 q20 14 34 -2 t34 6" /><path d="M172 244 q18 14 28 -2 t28 6" /></g>
    <g fill="#C6A882" opacity=".9"><path d="M84 70 l3 8 8 3 -8 3 -3 8 -3 -8 -8 -3 8 -3z"/><path d="M322 96 l3 7 7 3 -7 3 -3 7 -3 -7 -7 -3 7 -3z"/></g>
</svg>